<?xml version="1.0" standalone="no"?>
<!DOCTYPE svg PUBLIC "-//W3C//DTD SVG 20010904//EN"
 "http://www.w3.org/TR/2001/REC-SVG-20010904/DTD/svg10.dtd">
<svg version="1.0" xmlns="http://www.w3.org/2000/svg"
 width="916.000000pt" height="916.000000pt" viewBox="0 0 916.000000 916.000000"
 preserveAspectRatio="xMidYMid meet">
<metadata>
Created by potrace 1.11, written by Peter Selinger 2001-2013
</metadata>
<g transform="translate(0.000000,916.000000) scale(0.100000,-0.100000)"
fill="#000000" stroke="none">
<path d="M4005 8344 c-44 -15 -87 -32 -95 -39 -8 -7 -30 -17 -49 -24 -19 -6
-52 -26 -75 -44 -23 -19 -52 -40 -66 -47 -14 -7 -31 -21 -38 -32 -7 -10 -19
-18 -26 -18 -7 0 -54 -44 -104 -97 -50 -54 -103 -110 -117 -124 -14 -15 -25
-34 -25 -44 0 -9 -11 -30 -25 -47 -14 -16 -25 -36 -25 -44 0 -8 -6 -14 -14
-14 -15 0 -26 -21 -26 -50 0 -11 -9 -28 -21 -39 -12 -11 -23 -37 -26 -63 -3
-23 -12 -48 -20 -54 -7 -7 -18 -38 -23 -70 -6 -36 -17 -64 -27 -72 -16 -12
-18 -37 -18 -283 0 -247 2 -271 17 -280 10 -6 21 -28 24 -50 4 -22 12 -46 19
-52 22 -23 35 -55 35 -89 0 -27 -14 -49 -82 -123 -104 -115 -158 -177 -183
-211 -11 -14 -29 -37 -40 -50 -11 -13 -32 -41 -48 -62 -15 -20 -45 -60 -66
-87 -21 -28 -44 -62 -51 -75 -7 -14 -30 -46 -51 -71 -22 -26 -39 -51 -39 -56
0 -8 -95 -160 -117 -188 -5 -5 -35 -57 -66 -115 -32 -58 -62 -112 -67 -120
-61 -105 -119 -211 -125 -231 -4 -13 -13 -31 -20 -39 -7 -8 -30 -50 -50 -93
-20 -42 -41 -80 -46 -82 -5 -3 -13 -25 -20 -48 -6 -23 -17 -49 -24 -57 -14
-16 -47 -101 -70 -183 -8 -26 -21 -57 -29 -69 -9 -12 -16 -32 -16 -43 0 -11
-12 -65 -26 -120 -30 -119 -44 -367 -26 -475 25 -145 61 -301 76 -322 9 -12
16 -31 16 -42 0 -19 37 -108 65 -156 8 -14 22 -40 31 -59 25 -53 159 -215 231
-279 35 -31 99 -80 141 -109 42 -29 82 -56 87 -60 6 -5 35 -21 66 -36 80 -39
94 -57 79 -102 -14 -44 -42 -56 -169 -78 -52 -9 -101 -23 -110 -31 -9 -8 -29
-18 -46 -21 -45 -11 -114 -62 -173 -130 -99 -112 -102 -117 -102 -151 0 -44
11 -43 35 3 40 73 220 233 263 233 34 0 13 -54 -49 -124 -52 -61 -101 -140
-131 -210 -27 -62 -31 -86 -35 -186 -4 -91 -1 -124 12 -160 9 -25 24 -71 33
-103 15 -53 15 -58 -1 -74 -16 -16 -19 -15 -48 12 -35 35 -83 116 -94 160 -3
17 -13 38 -22 47 -8 9 -19 49 -24 89 -5 40 -11 74 -13 76 -2 3 -7 -20 -11 -51
-13 -99 19 -244 70 -322 39 -59 105 -127 157 -162 21 -13 40 -33 43 -43 4 -11
17 -32 30 -48 21 -24 23 -33 15 -62 -6 -19 -10 -108 -10 -199 0 -137 -4 -187
-25 -290 -14 -69 -31 -136 -39 -150 -7 -14 -16 -44 -20 -67 -3 -23 -24 -76
-46 -118 -22 -42 -40 -80 -40 -85 0 -6 17 -10 39 -10 37 0 39 1 45 40 8 52 61
114 90 106 12 -4 59 -11 105 -17 47 -6 109 -22 139 -35 51 -23 54 -26 49 -54
-8 -36 11 -50 30 -24 13 18 15 18 27 2 11 -15 29 -18 95 -18 l81 0 0 339 c0
216 4 342 10 346 6 4 10 -11 11 -37 0 -24 1 -178 2 -343 l2 -300 33 -3 32 -3
0 59 c0 41 -5 63 -15 72 -22 18 -22 385 0 397 10 6 18 35 24 83 7 50 15 78 27
87 9 7 22 23 28 35 10 21 20 23 90 26 70 3 78 1 83 -17 3 -10 13 -21 24 -24
12 -3 19 -14 19 -30 0 -16 7 -26 19 -30 15 -3 20 -18 25 -71 5 -46 13 -69 24
-75 15 -8 17 -35 19 -218 1 -114 5 -227 8 -250 l6 -43 1433 0 1433 0 6 107 c4
58 7 132 7 163 0 39 5 62 15 70 20 17 41 -1 49 -42 7 -36 103 -237 123 -256 7
-7 13 -20 13 -28 0 -12 52 -14 340 -14 386 0 366 -6 306 84 -18 28 -43 69 -55
91 -12 22 -26 47 -31 55 -5 8 -16 31 -25 50 -8 19 -28 59 -44 87 -16 29 -33
70 -39 90 -5 21 -26 76 -46 123 -20 47 -42 107 -48 135 -6 27 -16 59 -23 70
-7 11 -18 56 -23 100 -6 44 -18 97 -26 117 -9 21 -16 49 -16 64 0 28 35 94 50
94 17 0 113 106 132 145 10 22 23 47 28 55 5 8 22 42 37 75 27 59 28 64 28
240 l-1 180 -47 95 c-26 53 -47 101 -47 107 0 18 -207 229 -257 263 -24 16
-55 33 -68 36 -14 3 -29 12 -33 19 -15 27 -202 85 -292 90 -36 2 -68 4 -72 4
-5 1 -8 14 -8 29 0 20 14 42 56 82 57 56 155 195 169 240 4 14 13 32 20 40 7
8 24 44 38 80 88 225 102 309 102 635 -1 233 -19 455 -43 502 -5 10 -15 45
-22 78 -17 76 -56 202 -74 235 -7 14 -19 47 -25 75 -7 27 -16 54 -20 60 -5 5
-14 26 -20 47 -7 20 -46 103 -88 185 -114 220 -120 232 -166 305 -23 37 -60
95 -82 130 -21 35 -61 91 -87 125 -26 34 -48 65 -48 69 0 7 -44 62 -180 224
-98 116 -286 312 -390 406 -66 60 -278 224 -289 224 -5 0 -22 11 -38 24 -43
36 -173 107 -223 122 -25 7 -56 23 -69 35 -20 19 -22 28 -17 67 3 25 14 54 24
65 24 27 32 297 9 297 -17 0 -23 -22 -32 -122 -7 -75 -19 -92 -37 -53 -9 20
-8 44 2 108 15 92 15 230 0 235 -15 5 -12 135 3 157 20 26 26 9 32 -81 3 -43
9 -82 14 -87 23 -23 31 9 31 132 0 102 -3 131 -15 141 -8 7 -20 30 -25 51 -11
40 -97 174 -136 213 -29 29 -101 86 -109 86 -3 0 -34 13 -68 30 -140 66 -283
78 -422 34z m43 -129 c-3 -3 -19 -10 -36 -14 -23 -7 -34 -6 -43 5 -10 12 -4
14 36 14 27 0 46 -2 43 -5z m122 -5 c0 -5 -15 -10 -34 -10 -19 0 -38 5 -41 10
-4 6 10 10 34 10 23 0 41 -4 41 -10z m95 -41 c10 -15 -1 -23 -20 -15 -9 3 -13
10 -10 16 8 13 22 13 30 -1z m235 1 c0 -5 -2 -10 -4 -10 -3 0 -8 5 -11 10 -3
6 -1 10 4 10 6 0 11 -4 11 -10z m-552 -20 c27 -25 32 -104 7 -114 -8 -3 -15
-12 -15 -20 0 -9 -10 -21 -22 -27 -13 -7 -26 -18 -31 -25 -4 -7 -33 -16 -65
-20 -61 -6 -104 -33 -116 -72 -4 -12 -16 -24 -27 -27 -13 -4 -21 -19 -25 -44
-5 -33 -12 -40 -55 -60 -27 -13 -49 -28 -49 -33 0 -5 -21 -18 -46 -28 -27 -12
-44 -25 -41 -33 2 -6 11 -10 18 -8 47 13 108 12 143 -3 32 -13 37 -20 32 -38
-3 -13 -6 -33 -6 -45 0 -16 -6 -23 -19 -23 -10 0 -25 -9 -32 -20 -10 -14 -30
-21 -69 -26 l-55 -6 -19 47 c-15 37 -16 51 -8 70 8 18 8 26 0 31 -23 15 -38
-29 -38 -111 0 -70 3 -85 21 -101 11 -10 29 -39 41 -65 18 -42 24 -48 59 -54
41 -7 55 -23 17 -21 -32 3 -48 -12 -48 -43 0 -15 -6 -35 -14 -46 -7 -11 -16
-41 -20 -67 -4 -27 -12 -48 -17 -48 -5 0 -14 -11 -19 -25 -8 -22 -15 -25 -63
-25 -55 0 -77 12 -77 42 0 10 -4 18 -10 18 -5 0 -10 -20 -10 -44 0 -25 -5 -48
-11 -52 -6 -3 -9 -19 -5 -35 3 -16 1 -29 -4 -29 -6 0 -10 79 -10 208 0 184 3
219 24 312 32 138 65 223 128 330 45 77 181 220 209 220 5 0 9 6 9 14 0 9 7
12 20 9 14 -4 21 1 26 21 7 29 54 69 128 108 64 34 132 37 164 8z m379 -26
c-3 -3 -12 -4 -19 -1 -8 3 -5 6 6 6 11 1 17 -2 13 -5z m223 -4 c0 -5 -2 -10
-4 -10 -3 0 -8 5 -11 10 -3 6 -1 10 4 10 6 0 11 -4 11 -10z m64 -68 c14 -21
26 -48 26 -59 0 -20 -1 -20 -29 6 -28 26 -52 91 -33 91 5 0 21 -17 36 -38z
m-214 -13 c0 -18 -4 -28 -10 -24 -5 3 -10 20 -10 36 0 18 4 28 10 24 6 -3 10
-20 10 -36z m50 -105 c0 -8 -4 -12 -10 -9 -5 3 -10 13 -10 21 0 8 5 12 10 9 6
-3 10 -13 10 -21z m230 -25 c0 -21 -4 -40 -9 -44 -5 -3 -12 -19 -16 -35 -13
-60 -25 -40 -25 43 l0 84 25 -5 c21 -4 25 -10 25 -43z m-187 -51 c6 -39 -7
-130 -16 -108 -9 25 -15 99 -10 120 8 30 20 24 26 -12z m-713 -94 c12 -12 7
-14 -42 -14 -60 0 -80 12 -51 29 22 13 72 4 93 -15z m156 -134 c8 0 14 -5 14
-11 0 -7 -9 -9 -22 -5 -13 3 -26 6 -30 6 -5 0 -8 12 -8 27 l0 27 16 -22 c8
-12 22 -22 30 -22z m560 -92 c4 -105 0 -130 -22 -121 -13 5 -14 21 -9 97 11
158 25 168 31 24z m-789 25 c-3 -10 -5 -2 -5 17 0 19 2 27 5 18 2 -10 2 -26 0
-35z m945 -15 c9 -52 3 -197 -9 -209 -11 -10 -13 11 -13 109 0 67 4 122 9 122
5 0 11 -10 13 -22z m-684 -91 c-3 -30 -5 -32 -43 -32 -38 0 -40 2 -43 31 -3
27 1 33 25 42 41 14 65 -2 61 -41z m130 -8 c-2 -19 -7 -33 -13 -32 -12 3 -19
49 -10 71 10 26 27 -2 23 -39z m-492 -4 c18 -13 16 -14 -25 -15 -37 0 -42 2
-31 15 16 19 31 19 56 0z m844 -125 c0 -29 -4 -40 -15 -40 -17 0 -18 4 -9 49
9 44 24 39 24 -9z m-485 -35 c0 -15 -74 -26 -96 -14 -11 5 -17 14 -13 20 7 13
109 7 109 -6z m640 -56 c-4 -11 -11 -19 -16 -19 -11 0 -12 63 -2 74 11 10 24
-34 18 -55z m81 -2 c-8 -50 -16 -63 -27 -46 -7 13 -6 33 8 82 9 34 25 5 19
-36z m-971 13 c-7 -12 -49 -12 -85 0 -19 6 -11 8 33 9 36 1 56 -3 52 -9z m685
-70 c0 -27 -4 -50 -10 -50 -11 0 -14 59 -4 84 10 27 14 18 14 -34z m159 -22
c-1 -7 -5 -24 -9 -38 -7 -22 -8 -21 -9 13 -1 20 4 37 9 37 6 0 10 -6 9 -12z
m73 -53 c-2 -14 -8 -28 -13 -31 -10 -6 -12 49 -3 59 13 12 21 -3 16 -28z
m-272 -30 c0 -8 -7 -15 -15 -15 -16 0 -20 12 -8 23 11 12 23 8 23 -8z m157
-59 c-9 -26 -27 -15 -27 16 1 31 1 32 15 13 9 -10 14 -24 12 -29z m69 7 c-10
-10 -19 5 -10 18 6 11 8 11 12 0 2 -7 1 -15 -2 -18z m-276 -28 c0 -8 -4 -15
-10 -15 -5 0 -10 7 -10 15 0 8 5 15 10 15 6 0 10 -7 10 -15z m230 -21 c0 -14
-4 -23 -10 -19 -5 3 -10 15 -10 26 0 10 5 19 10 19 6 0 10 -12 10 -26z m181
-18 c52 -20 58 -23 144 -69 68 -36 81 -47 88 -75 7 -29 4 -38 -23 -68 -16 -19
-30 -41 -30 -48 0 -7 -11 -23 -25 -36 -34 -32 -86 -23 -163 27 -34 22 -89 53
-122 69 -33 15 -60 33 -60 39 0 24 126 175 146 175 6 0 27 -6 45 -14z m-458
-27 c-17 -17 -37 -1 -22 17 8 10 15 12 23 4 7 -7 7 -13 -1 -21z m-953 -65 c0
-19 -4 -34 -9 -34 -10 0 -19 50 -13 68 7 23 22 0 22 -34z m910 31 c0 -8 -7
-15 -15 -15 -16 0 -20 12 -8 23 11 12 23 8 23 -8z m-47 -40 c7 -18 -6 -27 -27
-19 -13 5 -14 9 -5 20 15 18 25 18 32 -1z m200 -41 c-8 -13 -23 -24 -32 -23
-10 0 -11 2 -3 6 6 2 12 15 12 28 0 18 4 22 20 18 18 -5 18 -7 3 -29z m-267
-9 c18 -13 17 -14 -18 -15 -37 0 -51 13 -25 23 19 8 22 8 43 -8z m-92 -44 c7
-10 -23 -20 -42 -14 -6 3 -10 9 -6 14 7 12 41 12 48 0z m-141 -37 c9 -3 17
-10 17 -15 0 -5 -72 -9 -171 -9 -141 0 -170 2 -160 13 8 10 48 14 153 14 79 1
151 -1 161 -3z m352 -24 c-11 -5 -29 -9 -40 -9 -17 -1 -17 1 -5 9 8 5 26 9 40
9 23 0 23 -1 5 -9z m275 -11 c0 -6 -13 -16 -30 -22 -16 -6 -30 -17 -30 -24 0
-8 -11 -19 -25 -25 -14 -6 -25 -14 -25 -18 0 -4 -13 -13 -29 -20 -16 -6 -38
-22 -50 -36 -15 -17 -31 -24 -56 -24 -19 0 -35 -4 -35 -10 0 -5 -11 -10 -24
-10 -16 0 -32 -11 -45 -28 -18 -26 -28 -29 -118 -40 -54 -6 -120 -16 -148 -21
-62 -12 -173 -13 -200 -1 l-20 9 20 0 c11 1 16 5 10 9 -16 11 -16 32 -1 32 8
0 16 -6 18 -12 3 -9 29 -14 76 -15 39 -1 80 -4 91 -8 25 -8 71 4 68 18 -4 19
47 37 104 37 49 0 57 3 62 21 5 18 12 21 51 17 31 -2 46 1 46 9 0 21 31 43 62
43 21 0 31 6 35 19 3 13 17 21 43 25 30 5 39 11 42 29 2 14 11 23 26 25 12 2
22 10 22 18 0 9 11 14 30 14 17 0 30 -5 30 -11z m600 1 c0 -5 -7 -7 -15 -4 -8
4 -15 8 -15 10 0 2 7 4 15 4 8 0 15 -4 15 -10z m-967 -37 c-7 -2 -21 -2 -30 0
-10 3 -4 5 12 5 17 0 24 -2 18 -5z m451 -2 c7 -11 -41 -24 -54 -16 -6 4 -10
10 -10 16 0 12 57 12 64 0z m66 -51 c0 -5 -9 -10 -19 -10 -11 0 -23 5 -26 10
-4 6 5 10 19 10 14 0 26 -4 26 -10z m582 -2 c-9 -9 -15 -9 -24 0 -9 9 -7 12
12 12 19 0 21 -3 12 -12z m-226 -23 c18 -13 17 -14 -18 -15 -36 0 -47 8 -31
23 10 11 28 8 49 -8z m276 -20 c0 -5 -5 -11 -11 -13 -6 -2 -11 4 -11 13 0 9 5
15 11 13 6 -2 11 -8 11 -13z m-552 1 c0 -11 -19 -15 -25 -6 -3 5 1 10 9 10 9
0 16 -2 16 -4z m-1254 -60 c7 -10 26 -16 50 -16 44 0 57 -7 67 -34 7 -17 3
-18 -60 -11 -53 6 -75 13 -102 36 -20 16 -41 29 -48 29 -13 0 -17 12 -8 22 10
10 89 -10 101 -26z m1629 -16 c3 -5 1 -10 -4 -10 -6 0 -11 5 -11 10 0 6 2 10
4 10 3 0 8 -4 11 -10z m-1785 -4 c0 -9 -30 -14 -35 -6 -4 6 3 10 14 10 12 0
21 -2 21 -4z m2060 -16 c0 -5 -4 -10 -10 -10 -5 0 -10 5 -10 10 0 6 5 10 10
10 6 0 10 -4 10 -10z m-210 -25 c10 -13 9 -15 -9 -15 -12 0 -21 6 -21 15 0 8
4 15 9 15 5 0 14 -7 21 -15z m-2004 -107 c4 -6 0 -16 -9 -23 -10 -7 -17 -17
-17 -24 0 -6 -9 -16 -20 -23 -11 -7 -20 -19 -20 -26 0 -8 -11 -27 -25 -44 -14
-16 -25 -39 -25 -50 0 -11 -8 -22 -20 -25 -10 -3 -22 -15 -26 -27 -3 -11 -15
-28 -25 -36 -10 -8 -20 -28 -21 -44 -2 -19 -10 -31 -25 -37 -18 -7 -23 -16
-23 -45 0 -27 -5 -37 -20 -41 -13 -4 -20 -14 -20 -30 0 -22 3 -21 40 19 22 24
42 51 45 60 3 9 19 19 35 23 15 3 31 12 33 20 3 7 19 16 36 20 16 3 35 13 42
21 6 8 20 14 30 14 10 0 29 11 43 24 20 17 43 25 93 30 51 5 72 12 83 27 12
14 31 21 74 24 32 2 65 10 73 17 9 7 41 15 72 19 31 4 73 10 93 14 20 4 53 4
73 1 30 -6 34 -9 25 -25 -8 -16 -24 -20 -99 -22 -76 -3 -93 -7 -113 -26 -20
-19 -36 -23 -85 -23 -48 0 -63 -4 -74 -19 -11 -14 -31 -20 -87 -25 -81 -7 -92
-10 -92 -32 0 -10 -13 -14 -45 -14 -39 0 -47 -3 -55 -25 -8 -20 -16 -25 -46
-25 -27 0 -37 -5 -41 -19 -2 -10 -16 -24 -29 -30 -13 -6 -24 -17 -24 -26 0 -8
-9 -15 -20 -15 -13 0 -24 -10 -30 -25 -5 -14 -16 -25 -25 -25 -8 0 -15 -9 -15
-20 0 -11 -7 -20 -15 -20 -9 0 -15 9 -15 25 0 14 -4 25 -10 25 -15 0 -23 -46
-12 -67 11 -21 6 -100 -10 -155 -8 -27 -8 -45 0 -65 6 -15 13 -57 14 -92 2
-55 6 -64 25 -72 14 -5 23 -17 23 -29 0 -30 -12 -25 -53 21 -27 29 -37 50 -37
74 0 18 -7 38 -16 46 -12 10 -15 28 -12 83 2 59 0 71 -13 74 -13 2 -18 -8 -23
-42 -5 -28 -12 -46 -20 -46 -14 0 -26 -30 -26 -67 0 -12 -8 -24 -19 -28 -13
-4 -22 -19 -26 -46 -4 -23 -14 -43 -26 -49 -14 -8 -19 -22 -19 -49 0 -29 -5
-40 -18 -44 -20 -5 -32 -44 -32 -101 0 -20 -7 -36 -20 -44 -14 -9 -20 -23 -20
-51 0 -24 -8 -48 -22 -66 -13 -16 -25 -51 -29 -84 -4 -30 -14 -60 -22 -66 -10
-7 -18 -45 -24 -113 -7 -70 -15 -108 -27 -120 -14 -16 -16 -54 -16 -310 0
-279 1 -293 20 -312 14 -14 20 -33 20 -62 0 -57 9 -88 26 -88 8 0 16 -16 20
-39 4 -23 17 -49 30 -62 13 -12 24 -31 24 -41 0 -11 7 -18 20 -18 15 0 20 -7
20 -26 0 -17 6 -28 20 -31 11 -3 20 -12 20 -19 0 -8 11 -19 25 -24 14 -5 25
-16 25 -25 0 -8 9 -15 19 -15 12 0 21 -9 25 -25 4 -16 13 -25 26 -25 10 0 21
-9 25 -19 3 -10 15 -21 25 -24 12 -3 20 -14 20 -26 0 -16 6 -21 24 -21 18 0
25 -6 28 -22 2 -13 11 -24 22 -26 11 -2 31 -15 45 -28 14 -13 34 -27 44 -30 9
-3 17 -12 17 -20 0 -8 11 -19 25 -24 14 -5 25 -16 25 -24 0 -8 9 -18 20 -21
11 -3 20 -12 20 -19 0 -7 12 -23 26 -37 14 -13 30 -34 35 -46 5 -13 15 -23 23
-23 7 0 17 -11 20 -25 4 -16 21 -31 49 -44 23 -11 35 -20 27 -19 -8 1 -26 -4
-40 -11 -39 -22 -99 -18 -170 11 -123 50 -200 88 -200 98 0 6 -7 10 -16 10
-64 0 -350 220 -429 330 -16 22 -46 61 -66 86 -42 53 -136 237 -157 309 -43
151 -59 350 -42 535 11 128 52 317 75 354 7 12 16 37 20 56 7 35 41 118 100
245 18 39 56 122 86 185 29 63 59 122 65 130 7 8 22 35 33 60 21 47 94 184
111 210 45 68 102 161 114 187 8 18 33 56 55 86 23 30 41 58 41 64 0 6 7 16
16 24 8 7 32 38 52 68 37 57 41 63 116 143 24 26 53 60 64 75 11 16 33 35 49
43 15 8 32 21 36 27 10 16 24 17 33 1z m1466 -85 c6 -7 26 -13 44 -13 63 0 94
-11 100 -37 4 -13 15 -28 25 -34 11 -5 19 -14 19 -18 0 -14 -41 0 -73 23 -28
20 -38 21 -365 18 -513 -5 -514 -5 -562 5 -42 10 -43 11 -12 12 18 0 46 8 62
16 23 12 63 15 175 14 85 -1 150 3 158 9 21 17 57 20 239 19 127 -2 181 -6
190 -14z m-1327 -13 c-3 -5 -21 -10 -40 -10 -19 0 -37 5 -40 10 -4 6 12 10 40
10 28 0 44 -4 40 -10z m2345 -45 c0 -8 -4 -15 -10 -15 -5 0 -10 7 -10 15 0 8
5 15 10 15 6 0 10 -7 10 -15z m-1105 -65 c123 -22 209 -52 269 -96 33 -24 64
-44 68 -44 4 0 8 -5 8 -11 0 -6 14 -27 30 -46 17 -18 30 -39 30 -45 0 -6 8
-17 18 -24 14 -10 17 -28 17 -96 0 -73 -3 -89 -25 -122 -14 -20 -49 -53 -78
-72 -56 -38 -200 -93 -242 -94 -14 0 -56 -7 -95 -16 -136 -29 -401 -72 -495
-79 -52 -4 -115 -14 -140 -21 -25 -8 -106 -19 -180 -24 -74 -6 -181 -15 -237
-21 -84 -8 -126 -7 -229 7 -119 16 -129 19 -172 54 -82 64 -137 152 -158 250
-8 40 -10 78 -5 100 9 38 82 126 113 136 11 3 27 13 36 21 37 32 91 61 128 67
21 4 48 16 59 26 12 10 44 20 80 24 33 4 78 13 100 21 23 7 74 18 115 24 44 6
77 16 82 24 6 11 56 16 250 21 150 5 266 13 303 21 96 23 264 30 350 15z m320
-11 c10 -14 1 -21 -19 -13 -9 3 -13 10 -10 15 7 12 21 11 29 -2z m875 -25 c0
-8 -4 -12 -10 -9 -5 3 -10 10 -10 16 0 5 5 9 10 9 6 0 10 -7 10 -16z m-202
-22 c2 -7 -3 -12 -12 -12 -9 0 -16 7 -16 16 0 17 22 14 28 -4z m86 -103 c-11
-18 -24 -8 -24 19 1 26 1 26 15 8 8 -10 12 -23 9 -27z m-607 -26 c14 -30 11
-38 -12 -30 -15 6 -22 57 -7 57 4 0 13 -12 19 -27z m863 -29 c0 -8 -4 -12 -10
-9 -5 3 -10 10 -10 16 0 5 5 9 10 9 6 0 10 -7 10 -16z m-809 -47 c5 -12 20
-40 33 -61 20 -34 22 -45 14 -80 -5 -22 -13 -43 -17 -46 -5 -3 -14 -23 -20
-44 -6 -22 -21 -49 -33 -60 -13 -12 -32 -38 -43 -60 -11 -21 -31 -42 -43 -47
-13 -5 -41 -26 -62 -47 -69 -67 -93 -84 -129 -89 -41 -6 -140 -51 -156 -71 -7
-9 -44 -15 -102 -19 -89 -5 -91 -4 -86 16 5 19 13 21 69 21 49 0 67 4 81 19
12 13 39 22 81 27 50 5 62 10 62 24 0 14 11 20 41 25 29 5 43 13 46 26 3 10
14 19 24 19 10 0 22 6 26 13 4 7 25 21 46 31 20 9 37 23 37 31 0 8 12 20 28
27 15 7 28 19 28 26 1 6 2 23 3 36 1 15 9 26 21 29 23 6 26 40 21 201 -3 66 0
87 8 81 7 -4 17 -17 22 -28z m634 13 c3 -5 1 -10 -4 -10 -6 0 -11 5 -11 10 0
6 2 10 4 10 3 0 8 -4 11 -10z m54 -79 c8 -14 7 -20 -4 -25 -11 -4 -15 2 -15
19 0 30 6 32 19 6z m258 -108 c-3 -10 -5 -4 -5 12 0 17 2 24 5 18 2 -7 2 -21
0 -30z m-164 -37 c6 -15 -1 -26 -15 -26 -4 0 -8 9 -8 20 0 23 15 27 23 6z m51
-107 c-11 -18 -24 -8 -24 19 1 26 1 26 15 8 8 -10 12 -23 9 -27z m206 -10 c0
-11 -4 -17 -10 -14 -5 3 -10 13 -10 21 0 8 5 14 10 14 6 0 10 -9 10 -21z
m-165 -69 c3 -5 1 -10 -4 -10 -6 0 -11 5 -11 10 0 6 2 10 4 10 3 0 8 -4 11
-10z m215 -21 c0 -11 -4 -17 -10 -14 -5 3 -10 13 -10 21 0 8 5 14 10 14 6 0
10 -9 10 -21z m-164 -58 c2 -19 -2 -31 -11 -35 -12 -4 -15 4 -15 41 0 36 3 44
12 35 6 -6 13 -24 14 -41z m214 -32 c0 -20 -15 -26 -25 -9 -9 15 3 43 15 35 5
-3 10 -15 10 -26z m-3294 -56 c-1 -13 8 -19 27 -21 19 -2 31 -11 37 -28 5 -13
16 -24 25 -24 8 0 29 -9 47 -20 18 -11 45 -20 59 -20 16 0 32 -9 41 -22 15
-23 18 -23 267 -25 248 -2 252 -2 274 20 20 20 35 23 148 27 102 4 131 8 146
23 16 14 40 17 145 17 110 0 128 2 151 20 32 25 52 25 77 0 19 -19 19 -20 0
-30 -10 -5 -54 -10 -97 -10 -78 0 -119 -10 -182 -44 -27 -14 -47 -17 -92 -13
-36 4 -82 1 -125 -9 -129 -29 -154 -31 -427 -30 -316 1 -352 8 -422 81 -22 23
-44 40 -50 39 -15 -5 -29 7 -54 49 -18 29 -19 37 -8 37 8 0 14 -8 13 -17z
m3124 -25 c0 -5 -4 -8 -10 -8 -5 0 -10 10 -10 23 0 18 2 19 10 7 5 -8 10 -18
10 -22z m214 3 c8 -13 -4 -42 -15 -35 -12 7 -12 44 0 44 6 0 12 -4 15 -9z
m-172 -113 c-15 -15 -27 14 -17 40 6 15 8 15 18 -6 7 -16 7 -26 -1 -34z m215
-30 c-3 -8 -6 -5 -6 6 -1 11 2 17 5 13 3 -3 4 -12 1 -19z m-163 -64 c0 -21 -4
-39 -11 -41 -9 -3 -13 10 -13 48 0 39 3 50 11 42 7 -7 12 -28 13 -49z m215
-37 c1 -10 -3 -15 -9 -12 -5 3 -10 21 -9 38 0 27 2 29 9 12 5 -11 9 -28 9 -38z
m-169 -98 c0 -21 -4 -39 -9 -39 -11 0 -22 55 -15 75 10 26 24 5 24 -36z m-673
-1 c-3 -7 -5 -2 -5 12 0 14 2 19 5 13 2 -7 2 -19 0 -25z m883 -29 c0 -31 -4
-48 -10 -44 -5 3 -10 26 -10 51 0 24 5 44 10 44 6 0 10 -23 10 -51z m-163
-112 c1 -42 -2 -77 -7 -77 -14 0 -20 30 -20 97 0 47 3 64 13 61 8 -3 13 -30
14 -81z m213 -39 c0 -16 -4 -28 -9 -28 -17 0 -23 20 -16 52 8 36 25 20 25 -24z
m-162 -146 c-2 -33 -8 -57 -15 -60 -10 -3 -13 15 -13 68 0 64 2 71 15 60 12
-10 15 -28 13 -68z m-1833 36 c14 -6 25 -14 25 -18 0 -4 13 -21 30 -37 28 -28
30 -34 35 -134 3 -57 1 -117 -4 -134 -5 -16 -10 -24 -10 -16 -1 11 -4 11 -16
1 -13 -11 -15 -6 -17 31 -1 24 -3 60 -4 79 -1 19 -3 70 -4 112 -2 43 -6 76
-10 73 -12 -8 -65 -18 -116 -22 -48 -4 -53 -3 -72 25 l-21 29 22 11 c30 14
130 15 162 0z m2044 -188 c1 -75 -12 -110 -23 -60 -8 45 -8 215 2 224 9 10 20
-76 21 -164z m-2282 146 c-3 -8 -1 -17 6 -19 7 -2 -15 -7 -48 -11 -90 -10
-105 -15 -105 -31 0 -12 -16 -15 -79 -15 -66 0 -83 -4 -107 -22 -23 -18 -41
-23 -91 -23 -71 0 -79 5 -63 35 16 30 51 40 172 50 58 5 115 14 125 19 18 11
113 28 167 30 21 1 27 -3 23 -13z m1396 -56 c3 -11 1 -23 -4 -26 -5 -3 -9 6
-9 20 0 31 6 34 13 6z m-1224 -87 c5 -10 9 -46 10 -79 0 -34 6 -74 12 -90 7
-16 14 -101 17 -191 l4 -162 -31 -39 c-28 -37 -38 -41 -128 -62 -92 -21 -101
-22 -142 -7 -39 14 -47 14 -66 1 -21 -14 -26 -13 -59 9 -47 33 -78 71 -108
137 -33 72 -37 97 -40 269 -2 141 -2 144 22 163 21 17 38 19 135 17 80 -1 122
3 155 14 50 18 128 34 177 36 22 1 35 -5 42 -16z m1940 -388 c0 -203 -4 -379
-9 -390 -11 -25 -10 -63 -11 380 -1 436 -2 415 11 395 6 -9 9 -162 9 -385z
m-2725 264 c21 -46 19 -170 -2 -177 -7 -2 -12 -10 -12 -18 0 -7 -6 -11 -14 -8
-34 13 -45 169 -16 224 16 29 24 25 44 -21z m963 -250 c-8 -103 -26 -225 -38
-257 -14 -37 -34 -20 -35 29 -3 66 6 109 22 109 15 0 30 44 25 75 -2 11 -12
32 -22 47 -20 27 -18 44 9 86 12 18 17 20 30 10 12 -10 14 -29 9 -99z m1933
-67 c0 -84 -10 -143 -22 -136 -9 6 -10 178 -1 201 12 30 23 -3 23 -65z m-2868
-70 c3 -43 10 -64 26 -80 12 -12 22 -33 22 -45 0 -13 9 -34 20 -47 11 -13 20
-32 20 -42 0 -11 9 -22 20 -25 11 -3 23 -16 26 -29 4 -17 13 -24 31 -24 16 0
27 -7 30 -20 3 -11 8 -20 12 -20 88 -7 101 -10 120 -29 25 -25 108 -30 117 -7
8 21 30 28 109 35 53 5 70 10 70 21 0 11 13 16 47 18 41 3 49 6 54 28 5 18 12
24 27 22 15 -2 23 4 27 22 4 15 13 24 23 24 9 -1 16 1 15 5 0 3 0 14 1 24 1
19 31 24 31 5 0 -14 -94 -114 -127 -135 -10 -7 -34 -23 -53 -36 -65 -42 -190
-77 -277 -77 -59 0 -84 4 -93 15 -7 8 -22 15 -34 15 -11 0 -32 9 -46 20 -14
11 -33 20 -43 20 -22 0 -127 97 -127 118 0 8 -11 27 -25 44 -14 16 -25 37 -25
47 0 9 -7 26 -15 37 -8 10 -15 35 -15 54 -1 19 -5 44 -9 54 -4 11 -6 30 -3 43
3 18 8 21 22 13 13 -7 19 -25 22 -68z m2818 -192 c0 -22 -16 -35 -25 -20 -9
14 4 52 16 45 5 -4 9 -15 9 -25z m-50 -100 c0 -16 -4 -30 -10 -30 -11 0 -14
43 -3 53 11 12 13 8 13 -23z m-116 -77 c-1 -15 -3 -34 -3 -40 -1 -7 -5 -13
-11 -13 -5 0 -10 23 -10 51 0 41 3 49 13 41 7 -6 12 -24 11 -39z m76 -8 c0 -8
-4 -15 -10 -15 -5 0 -7 7 -4 15 4 8 8 15 10 15 2 0 4 -7 4 -15z m-118 -112
c24 -21 23 -39 -2 -46 -11 -3 -20 -14 -20 -25 0 -11 -9 -22 -20 -25 -11 -3
-20 -12 -20 -21 0 -9 -4 -16 -9 -16 -4 0 -6 11 -3 25 2 14 8 25 12 25 23 0 38
32 33 65 -6 39 1 43 29 18z m-108 -185 c-9 -14 -23 2 -17 18 4 12 8 13 14 3 4
-7 5 -17 3 -21z m-2677 -84 c-3 -3 -12 -4 -19 -1 -8 3 -5 6 6 6 11 1 17 -2 13
-5z m139 -86 c4 -80 -10 -106 -16 -28 -5 64 -2 96 8 86 2 -3 6 -29 8 -58z
m-206 -14 c0 -67 -14 -80 -22 -22 -5 29 8 88 18 88 2 0 4 -30 4 -66z m1497 60
c-3 -3 -12 -4 -19 -1 -8 3 -5 6 6 6 11 1 17 -2 13 -5z m149 -103 c-10 -65 -26
-59 -26 10 1 60 2 63 16 44 10 -13 14 -32 10 -54z m1074 -86 c-6 -7 -27 -21
-46 -30 -28 -13 -38 -14 -50 -5 -22 19 -17 29 20 35 19 4 45 19 58 33 l23 27
3 -23 c2 -13 -2 -29 -8 -37z m-2725 5 c4 -6 -13 -10 -45 -10 -32 0 -49 4 -45
10 3 6 24 10 45 10 21 0 42 -4 45 -10z m169 -25 c100 -24 93 -36 -17 -34 -97
2 -102 4 -91 33 7 19 31 20 108 1z m-606 -42 c26 -15 48 -27 49 -28 1 -1 4
-35 7 -76 6 -106 38 -173 124 -257 38 -37 81 -76 97 -86 49 -34 239 -126 258
-126 10 0 32 -7 50 -17 29 -15 107 -34 272 -65 102 -20 722 -15 885 6 74 10
180 24 235 31 55 6 123 19 150 28 28 9 82 23 120 31 208 43 452 156 560 259
56 53 119 64 129 22 14 -54 -14 -105 -83 -155 -42 -31 -60 -41 -188 -103 -43
-21 -91 -45 -108 -54 -16 -8 -52 -21 -80 -29 -158 -42 -193 -52 -212 -62 -12
-7 -57 -17 -100 -22 -43 -6 -100 -17 -128 -25 -69 -19 -316 -43 -583 -57 -284
-14 -621 6 -802 49 -36 8 -96 21 -135 29 -38 8 -79 18 -90 24 -11 5 -45 19
-75 29 -141 49 -172 65 -272 144 -88 69 -123 109 -160 185 -26 53 -33 79 -33
127 1 56 21 200 32 218 8 13 34 7 81 -20z m1969 11 c-3 -3 -12 -4 -19 -1 -8 3
-5 6 6 6 11 1 17 -2 13 -5z m-1038 -34 c34 -9 -109 -22 -150 -13 -30 6 -38 18
-16 27 14 6 128 -3 166 -14z m2126 -41 c4 -17 1 -30 -9 -38 -14 -12 -16 -8
-16 35 0 50 13 52 25 3z m75 2 c0 -22 -16 -36 -24 -22 -8 12 3 41 15 41 5 0 9
-9 9 -19z m-1378 -9 c9 -9 -56 -12 -282 -11 -208 0 -288 3 -270 10 14 6 43 8
65 5 22 -3 54 -2 70 3 44 14 402 8 417 -7z m1328 -77 c0 -14 -4 -25 -10 -25
-11 0 -14 33 -3 43 11 11 13 8 13 -18z m-40 -60 c0 -8 -7 -15 -15 -15 -16 0
-20 12 -8 23 11 12 23 8 23 -8z m-80 -15 c0 -5 -4 -10 -10 -10 -5 0 -10 5 -10
10 0 6 5 10 10 10 6 0 10 -4 10 -10z m-2980 -332 c0 -5 -10 -12 -21 -15 -19
-5 -21 -11 -16 -59 3 -30 1 -56 -4 -59 -5 -4 -9 27 -9 73 0 79 0 79 25 74 14
-2 25 -9 25 -14z m2900 2 c-19 -12 -40 -13 -40 -1 0 9 40 20 50 13 2 -2 -2 -7
-10 -12z m-2850 -45 c0 -8 -4 -15 -9 -15 -13 0 -22 16 -14 24 11 11 23 6 23
-9z m2778 -50 c0 -73 -21 -88 -26 -19 -2 21 -10 46 -18 56 -14 15 -14 17 3 21
39 10 41 8 41 -58z m-2728 5 c0 -5 -2 -10 -4 -10 -3 0 -8 5 -11 10 -3 6 -1 10
4 10 6 0 11 -4 11 -10z m2638 -2 c-7 -20 -58 -23 -58 -4 0 11 10 16 31 16 20
0 29 -4 27 -12z m-2538 -48 c0 -13 -20 -13 -40 0 -12 8 -9 10 13 10 15 0 27
-4 27 -10z m2456 1 c-8 -12 -62 -22 -81 -15 -31 12 -13 24 36 24 27 0 48 -4
45 -9z m-2365 -46 c0 -5 -12 -11 -26 -13 -22 -3 -25 -8 -26 -50 -2 -33 -3 -38
-6 -18 -3 16 -2 44 2 63 5 29 10 34 31 31 13 -2 25 -7 25 -13z m2229 -10 c0
-19 -5 -25 -23 -25 -30 0 -62 24 -53 38 4 7 23 12 42 12 30 0 34 -3 34 -25z
m-2479 -105 c-5 -19 -12 -84 -15 -144 -7 -146 -22 -157 -31 -22 -8 122 0 210
23 246 l16 25 9 -35 c5 -22 5 -47 -2 -70z m373 71 c10 -16 -48 -21 -64 -5 -12
12 -10 14 22 14 20 0 39 -4 42 -9z m1976 -1 c0 -11 -65 -24 -85 -16 -32 12
-13 26 35 26 28 0 50 -4 50 -10z m537 4 c-3 -3 -12 -4 -19 -1 -8 3 -5 6 6 6
11 1 17 -2 13 -5z m-2340 -44 c30 0 34 -2 23 -15 -16 -20 -113 -21 -129 -1
-15 18 3 27 43 21 16 -3 44 -5 63 -5z m1648 0 c16 -6 17 -9 5 -13 -27 -9 -147
-18 -164 -11 -31 12 -16 23 37 27 91 6 102 6 122 -3z m725 -52 c-1 -50 -3 -59
-11 -45 -10 17 -4 107 7 107 2 0 4 -28 4 -62z m-550 -9 c0 -36 -4 -49 -12 -47
-16 5 -22 41 -14 74 11 42 26 26 26 -27z m200 -11 c0 -15 -4 -30 -10 -33 -6
-4 -10 12 -10 42 0 35 3 44 10 33 5 -8 10 -27 10 -42z m-1756 23 c9 -14 -21
-21 -94 -21 -48 0 -71 4 -80 15 -11 13 -1 15 78 15 50 0 93 -4 96 -9z m1150
-13 c-9 -31 -12 -34 -26 -20 -7 7 -43 12 -89 12 -43 0 -80 4 -83 9 -10 15 14
19 112 20 92 1 93 1 86 -21z m-1851 -39 c-8 -8 -16 -8 -30 0 -16 9 -14 10 12
11 21 0 26 -3 18 -11z m256 -41 c0 -42 -2 -48 -9 -30 -8 20 -3 82 6 82 2 0 4
-24 3 -52z m1241 42 c-14 -4 -58 -8 -98 -9 -55 -1 -74 -5 -78 -16 -7 -18 -65
-20 -82 -3 -9 9 -68 14 -192 18 -299 8 -214 20 141 19 184 -1 323 -5 309 -9z
m455 -90 c4 -24 1 -41 -9 -55 -14 -19 -15 -15 -16 45 0 67 13 73 25 10z
m-1275 -21 c0 -31 -4 -48 -10 -44 -11 7 -13 54 -4 79 10 27 14 18 14 -35z
m1069 7 c-3 -48 -13 -53 -22 -9 -6 30 1 53 15 53 5 0 8 -20 7 -44z m-863 -32
c-11 -43 -30 -14 -21 33 7 35 8 36 17 16 6 -12 7 -34 4 -49z m310 -30 c-6 -28
-10 -34 -19 -25 -13 13 -15 77 -3 106 8 18 10 17 19 -12 5 -17 6 -48 3 -69z
m-1062 51 c8 -8 26 -15 41 -15 17 0 29 -8 37 -25 6 -14 17 -25 24 -25 19 0 24
-25 24 -115 0 -91 -5 -101 -61 -112 -19 -3 -43 -12 -55 -20 -18 -11 -23 -11
-33 1 -6 8 -27 17 -46 20 -19 4 -44 16 -57 27 -13 10 -32 26 -43 33 -17 13
-20 26 -20 100 0 50 5 90 11 96 6 6 30 14 53 17 22 3 46 12 52 19 15 18 54 18
73 -1z m241 -25 c-8 -13 -55 -13 -75 0 -11 7 -2 10 33 10 30 0 46 -4 42 -10z
m420 -90 c-3 -5 -12 -10 -20 -10 -8 0 -17 5 -20 10 -4 6 5 10 20 10 15 0 24
-4 20 -10z m-1320 -136 c11 -7 40 -18 64 -25 23 -7 50 -23 57 -35 8 -12 24
-24 34 -27 18 -5 20 -14 20 -80 0 -54 4 -78 15 -87 13 -11 12 -15 -8 -30 -18
-14 -45 -19 -125 -21 -56 -2 -105 0 -109 4 -4 4 -6 47 -5 95 3 79 -5 138 -23
199 -11 34 31 38 80 7z m4187 -121 c8 -10 -11 -13 -93 -12 -68 0 -97 3 -84 9
11 5 41 9 67 9 49 1 78 19 78 50 0 36 15 32 18 -5 2 -22 8 -44 14 -51z m-3765
0 c-3 -10 -5 -4 -5 12 0 17 2 24 5 18 2 -7 2 -21 0 -30z m3553 -8 c0 -2 -9 -9
-20 -15 -16 -9 -20 -8 -20 5 0 8 9 15 20 15 11 0 20 -2 20 -5z m168 -152 c-16
-2 -40 -2 -55 0 -16 2 -3 4 27 4 30 0 43 -2 28 -4z m122 -78 c0 -25 -2 -45 -5
-45 -6 0 -35 68 -35 81 0 5 9 9 20 9 17 0 20 -7 20 -45z m-4125 -34 c17 -4 34
-17 40 -29 6 -13 20 -25 33 -29 25 -6 30 -31 7 -39 -12 -5 -13 -20 -8 -78 4
-59 3 -75 -11 -88 -22 -22 -20 -38 3 -38 18 0 39 -35 28 -47 -3 -2 -68 -9
-144 -13 -76 -5 -149 -12 -163 -15 -14 -4 -33 0 -43 7 -17 13 -17 18 -2 103
10 50 23 107 31 128 8 20 14 56 14 78 0 73 9 79 103 73 45 -4 96 -9 112 -13z
m4169 -87 c4 -15 2 -32 -3 -37 -8 -8 -11 -5 -11 10 0 12 -3 28 -6 37 -3 9 -2
16 4 16 5 0 13 -12 16 -26z m53 -139 c11 -24 10 -25 -24 -25 -31 0 -33 1 -19
16 9 8 16 20 16 25 0 18 15 9 27 -16z m-149 -62 c2 -9 -11 -13 -47 -13 -41 0
-49 3 -44 16 7 18 84 16 91 -3z m242 -156 c0 -10 -22 -13 -96 -11 -53 1 -106
-1 -118 -6 -15 -5 -28 -2 -45 11 -23 19 -22 19 118 19 110 0 141 -3 141 -13z"/>
<path d="M2776 5698 c-9 -36 -7 -73 3 -62 14 14 25 84 13 84 -5 0 -12 -10 -16
-22z"/>
<path d="M2806 3214 c-9 -24 -7 -50 5 -78 11 -24 13 -24 40 -10 54 28 46 104
-10 104 -17 0 -31 -6 -35 -16z"/>
<path d="M2165 2420 c-4 -16 -3 -39 1 -52 6 -21 7 -21 20 -3 19 25 18 85 0 85
-8 0 -17 -13 -21 -30z"/>
</g>
</svg>
