<svg version="1" xmlns="http://www.w3.org/2000/svg" width="562.667" height="562.667" viewBox="0 0 422.000000 422.000000"><path d="M0 211v211h422V0H0v211zM216.3 64.9L228 83.7l-7 22.9c-3.8 12.5-6.8 22.9-6.6 23.1.2.2 7-6.8 15.1-15.7 8.1-8.8 15.1-16 15.5-16 1 0 14 17.4 14 18.7 0 .5-5.2 6.7-11.6 13.9-17.7 19.5-21.6 25.7-24.9 38.9-4.8 19.1 3.8 53.6 16.9 68.2 5.6 6.2 11.2 9.1 19.2 9.9 29.4 3.1 59.3-32.8 59.7-71.6.1-16.8-3.6-30.8-16.3-61.4-7.8-18.9-10.1-24.6-9.6-24.6 1.1 0 15.8 12.4 21.5 18.1 46.4 46.8 58.7 116.4 31.3 176.3-15.8 34.8-43.9 62.8-77.9 77.9-23.5 10.4-40.2 14-65.3 14-31.9 0-59.4-8.2-86-25.8-46.3-30.6-73.1-82.9-70.7-137.9 2.1-48.6 25.5-92.4 64.6-121 3.5-2.5 6.5-4.5 6.7-4.3.6.5-3.9 11.3-13.1 31.2-9.7 21.1-14.1 34.3-15.4 45.7-2.9 25.7 7.1 52.8 25.9 70.1 17.4 16.1 38.3 17.9 54.3 4.6 6.9-5.7 13.4-17.2 16.8-29.9 2-7.3 1.7-28.3-.5-36.5-4-15-12.2-27.5-28.7-43.6-6-5.8-10.9-10.9-10.9-11.3 0-1 12.5-17.9 14.4-19.5 1.1-.9 4.5 2.1 16.5 14.5 8.3 8.6 15.1 15.2 15.1 14.6 0-.6-2.9-10.4-6.5-21.9l-6.4-20.8 12.7-19.2c7-10.6 12.9-19.3 13.2-19.3.3 0 5.8 8.5 12.3 18.9z"/></svg>