<?xml version="1.0" standalone="no"?>
<!DOCTYPE svg PUBLIC "-//W3C//DTD SVG 20010904//EN"
 "http://www.w3.org/TR/2001/REC-SVG-20010904/DTD/svg10.dtd">
<svg version="1.0" xmlns="http://www.w3.org/2000/svg"
 width="363.000000pt" height="363.000000pt" viewBox="0 0 363.000000 363.000000"
 preserveAspectRatio="xMidYMid meet">
<metadata>
Created by potrace 1.11, written by Peter Selinger 2001-2013
</metadata>
<g transform="translate(0.000000,363.000000) scale(0.100000,-0.100000)"
fill="#000000" stroke="none">
<path d="M1561 3614 c-728 -93 -1324 -573 -1504 -1210 -31 -109 -45 -193 -53
-312 l-7 -92 487 2 488 3 22 70 c97 303 373 536 696 586 307 48 659 -98 836
-347 56 -78 110 -195 121 -260 l8 -49 489 -3 489 -2 -7 92 c-46 651 -493 1199
-1171 1434 -259 91 -609 125 -894 88z"/>
<path d="M1725 2444 c-61 -10 -141 -37 -204 -69 -205 -105 -334 -300 -348
-525 -18 -288 165 -547 457 -646 78 -27 292 -27 370 0 175 59 315 177 389 326
54 111 75 209 67 321 -18 269 -201 494 -466 573 -56 17 -210 28 -265 20z"/>
<path d="M4 1538 c35 -496 298 -931 741 -1225 628 -416 1512 -416 2140 0 442
293 706 731 741 1225 l7 92 -487 -2 -488 -3 -22 -70 c-97 -303 -373 -536 -696
-586 -307 -48 -659 98 -836 347 -56 78 -110 195 -121 260 l-8 49 -489 3 -489
2 7 -92z"/>
</g>
</svg>
